<?xml version="1.0" encoding="iso-8859-1"?>
<!-- Uploaded to: SVG Repo, www.svgrepo.com, Generator: SVG Repo Mixer Tools -->
<svg height="800px" width="800px" version="1.1" id="Layer_1" xmlns="http://www.w3.org/2000/svg" xmlns:xlink="http://www.w3.org/1999/xlink" 
	 viewBox="0 0 512 512" xml:space="preserve">
<path style="fill:#28D2E4;" d="M439.874,274.039H72.126c-10.875,0-19.692-8.817-19.692-19.692V20.061
	c0-10.875,8.817-19.692,19.692-19.692h367.747c10.875,0,19.692,8.817,19.692,19.692v234.286
	C459.566,265.223,450.75,274.039,439.874,274.039z"/>
<g>
	<path style="fill:#28C3E4;" d="M439.874,0.369H256v273.671h183.874c10.875,0,19.692-8.817,19.692-19.692V20.061
		C459.566,9.186,450.75,0.369,439.874,0.369z"/>
	<path style="fill:#28C3E4;" d="M190.815,114.285h-58.242c-10.875,0-19.692-8.817-19.692-19.692S121.697,74.9,132.573,74.9h58.242
		c10.875,0,19.692,8.817,19.692,19.692S201.69,114.285,190.815,114.285z"/>
	<path style="fill:#28C3E4;" d="M190.815,188.819h-58.242c-10.875,0-19.692-8.817-19.692-19.692s8.817-19.692,19.692-19.692h58.242
		c10.875,0,19.692,8.817,19.692,19.692S201.69,188.819,190.815,188.819z"/>
	<path style="fill:#28C3E4;" d="M19.692,39.752C8.817,39.752,0,30.935,0,20.06S8.817,0.368,19.692,0.368h472.615
		C503.183,0.368,512,9.184,512,20.06s-8.817,19.692-19.692,19.692H19.692z"/>
</g>
<path style="fill:#FFDB77;" d="M406.503,511.634H105.485c-29.3,0-53.051-23.752-53.051-53.051V234.655h407.132V458.57
	C459.566,487.876,435.809,511.634,406.503,511.634z"/>
<g>
	<path style="fill:#FF905E;" d="M256,234.655v276.979h150.503c29.306,0,53.064-23.758,53.064-53.064V234.655L256,234.655
		L256,234.655z"/>
	<circle style="fill:#FF905E;" cx="196.109" cy="375.742" r="21.692"/>
</g>
<path style="fill:#28B6E4;" d="M492.308,0.366H256v39.385h236.308c10.875,0,19.692-8.817,19.692-19.692S503.183,0.366,492.308,0.366
	z"/>
<circle style="fill:#DC554F;" cx="308.618" cy="375.742" r="42.089"/>
</svg>